# xmcd
#
# Track frame offsets:
#	150
#	21253
#	39563
#	59035
#	72635
#	86763
#	100498
#	119253
#	134783
#	148155
#	162748
#	174785
#
# Disc length: 2516 seconds
#
# Revision: 1
# Processed by: cddbd v1.5.2PL0 Copyright (c) Steve Scherf et al.
# Submitted via: audiograbber 1.83.01
#
DISCID=be09d20c
DTITLE=Reidy, Pat - Bridge the Gap
DYEAR=1998
DGENRE=
TTITLE0=Broken Hearted Today
TTITLE1=Tornado Valley
TTITLE2=Bridge the Gap
TTITLE3=Just Good Friends
TTITLE4=Martha
TTITLE5=Chandlers Cold Store
TTITLE6=Let Sleeping Dogs Lie
TTITLE7=Starling Blues
TTITLE8=Looking Back
TTITLE9=I'm Over You
TTITLE10=A Blue Butterfly
TTITLE11=Song Writer's Song
EXTD=
EXTT0=
EXTT1=
EXTT2=
EXTT3=
EXTT4=
EXTT5=
EXTT6=
EXTT7=
EXTT8=
EXTT9=
EXTT10=
EXTT11=
PLAYORDER=
